<svg width="29" height="29" viewBox="0 0 29 29" fill="none" xmlns="http://www.w3.org/2000/svg">
<path d="M1.0875 0.200012C1.06875 0.2047 1.05 0.211731 1.03125 0.218762C0.447656 0.300794 0 0.795325 0 1.40001C0 2.06329 0.536719 2.60001 1.2 2.60001C1.86328 2.60001 2.4 2.06329 2.4 1.40001H5.19375C5.94141 1.40001 6.33047 1.5547 6.61875 1.81251C6.90234 2.06798 7.13203 2.49923 7.33125 3.16251L12.1313 22.5313C12.3117 23.218 12.4922 23.9258 12.9938 24.5C13.2023 24.7391 13.4648 24.9336 13.7813 25.0813C13.4297 25.4984 13.2 26.0164 13.2 26.6C13.2 27.9195 14.2805 29 15.6 29C16.9195 29 18 27.9195 18 26.6C18 26.1594 17.8711 25.7563 17.6625 25.4H21.3375C21.1289 25.7563 21 26.1594 21 26.6C21 27.9195 22.0805 29 23.4 29C24.7195 29 25.8 27.9195 25.8 26.6C25.8 25.9836 25.5492 25.4328 25.1625 25.0063C25.2305 24.8234 25.2023 24.6172 25.0922 24.4578C24.9797 24.2961 24.7969 24.2 24.6 24.2H15.4313C14.5055 24.2 14.1281 24.0031 13.875 23.7125C13.6242 23.4242 13.4719 22.9203 13.2938 22.25V22.2313L12.8813 20.6H23.8875C24.1383 20.6 24.3656 20.443 24.45 20.2063L28.7625 8.80626C28.8328 8.62345 28.807 8.4172 28.6945 8.25548C28.582 8.09376 28.3969 7.99767 28.2 8.00001H9.76875L8.49375 2.88126C8.49375 2.86954 8.49375 2.85548 8.49375 2.84376C8.26406 2.07032 7.96641 1.40001 7.425 0.912512C6.88359 0.425012 6.12188 0.200012 5.19375 0.200012H1.2C1.18125 0.200012 1.1625 0.200012 1.14375 0.200012C1.125 0.200012 1.10625 0.200012 1.0875 0.200012ZM10.0688 9.20001H27.3375L23.475 19.4H12.6L10.0688 9.20001ZM15.6 25.4C16.2703 25.4 16.8 25.9297 16.8 26.6C16.8 27.2703 16.2703 27.8 15.6 27.8C14.9297 27.8 14.4 27.2703 14.4 26.6C14.4 25.9297 14.9297 25.4 15.6 25.4ZM23.4 25.4C24.0703 25.4 24.6 25.9297 24.6 26.6C24.6 27.2703 24.0703 27.8 23.4 27.8C22.7297 27.8 22.2 27.2703 22.2 26.6C22.2 25.9297 22.7297 25.4 23.4 25.4Z" fill="#526272"/>
</svg>
