<svg width="20" height="20" viewBox="0 0 20 20" fill="none" xmlns="http://www.w3.org/2000/svg">
<path d="M0.8 0.799805C0.357812 0.799805 0 1.15762 0 1.5998C0 2.04199 0.357812 2.3998 0.8 2.3998C1.24219 2.3998 1.6 2.04199 1.6 1.5998H3.4625C4.29688 1.5998 4.61719 1.86699 4.8875 2.7748L8.0875 15.6873C8.25781 16.3311 8.45 17.0436 9.175 17.3873C8.94687 17.6639 8.8 18.0139 8.8 18.3998C8.8 19.2826 9.51719 19.9998 10.4 19.9998C11.2828 19.9998 12 19.2826 12 18.3998C12 18.1076 11.9125 17.8357 11.775 17.5998H14.225C14.0875 17.8357 14 18.1076 14 18.3998C14 19.2826 14.7172 19.9998 15.6 19.9998C16.4828 19.9998 17.2 19.2826 17.2 18.3998C17.2 17.9842 17.0359 17.6092 16.775 17.3248C16.7891 17.2842 16.8 17.2451 16.8 17.1998C16.8 16.9795 16.6203 16.7998 16.4 16.7998H10.2875C9.20937 16.7998 9.09219 16.3686 8.8625 15.4998L8.5875 14.3998H15.925C16.0906 14.3998 16.2422 14.292 16.3 14.1373L19.175 6.5373C19.2219 6.41543 19.1984 6.28262 19.125 6.1748C19.0516 6.06699 18.9297 5.9998 18.8 5.9998H6.5125L5.6625 2.5623C5.39062 1.64668 4.92812 0.799805 3.4625 0.799805H0.8ZM10.4 17.5998C10.8406 17.5998 11.2 17.9592 11.2 18.3998C11.2 18.8404 10.8406 19.1998 10.4 19.1998C9.95937 19.1998 9.6 18.8404 9.6 18.3998C9.6 17.9592 9.95937 17.5998 10.4 17.5998ZM15.6 17.5998C16.0406 17.5998 16.4 17.9592 16.4 18.3998C16.4 18.8404 16.0406 19.1998 15.6 19.1998C15.1594 19.1998 14.8 18.8404 14.8 18.3998C14.8 17.9592 15.1594 17.5998 15.6 17.5998Z" fill="white"/>
</svg>
