<svg width="10" height="10" viewBox="0 0 10 10" fill="none" xmlns="http://www.w3.org/2000/svg">
<path d="M9.61747 7.77049C10.1275 8.28052 10.1275 9.10744 9.61747 9.61748C9.10744 10.1275 8.28052 10.1275 7.77048 9.61748L0.382524 2.22951C-0.127508 1.71948 -0.127508 0.892557 0.382524 0.382524C0.892556 -0.127508 1.71948 -0.127508 2.22951 0.382524L9.61747 7.77049Z" fill="#AEAEAE"/>
<path d="M2.22951 9.61748C1.71948 10.1275 0.892556 10.1275 0.382524 9.61748C-0.127508 9.10744 -0.127508 8.28052 0.382524 7.77049L7.77049 0.382525C8.28052 -0.127507 9.10744 -0.127507 9.61748 0.382525C10.1275 0.892558 10.1275 1.71948 9.61748 2.22952L2.22951 9.61748Z" fill="#AEAEAE"/>
</svg>
