<svg width="18" height="19" viewBox="0 0 18 19" fill="none" xmlns="http://www.w3.org/2000/svg">
<path d="M7.4001 0.599998C3.6493 0.599998 0.600098 3.6492 0.600098 7.4C0.600098 11.1508 3.6493 14.2 7.4001 14.2C8.88505 14.2 10.2558 13.7164 11.3751 12.9062L16.6345 18.1656L17.7657 17.0344L12.5548 11.8234C13.5775 10.6332 14.2001 9.08945 14.2001 7.4C14.2001 3.6492 11.1509 0.599998 7.4001 0.599998ZM7.4001 1.4C10.7185 1.4 13.4001 4.08155 13.4001 7.4C13.4001 10.7184 10.7185 13.4 7.4001 13.4C4.08165 13.4 1.4001 10.7184 1.4001 7.4C1.4001 4.08155 4.08165 1.4 7.4001 1.4ZM4.2001 6.6C3.98792 6.6 3.78444 6.68428 3.63441 6.83431C3.48438 6.98434 3.4001 7.18783 3.4001 7.4C3.4001 7.61217 3.48438 7.81566 3.63441 7.96568C3.78444 8.11571 3.98792 8.2 4.2001 8.2C4.41227 8.2 4.61575 8.11571 4.76578 7.96568C4.91581 7.81566 5.0001 7.61217 5.0001 7.4C5.0001 7.18783 4.91581 6.98434 4.76578 6.83431C4.61575 6.68428 4.41227 6.6 4.2001 6.6ZM7.4001 6.6C7.18792 6.6 6.98444 6.68428 6.83441 6.83431C6.68438 6.98434 6.6001 7.18783 6.6001 7.4C6.6001 7.61217 6.68438 7.81566 6.83441 7.96568C6.98444 8.11571 7.18792 8.2 7.4001 8.2C7.61227 8.2 7.81575 8.11571 7.96578 7.96568C8.11581 7.81566 8.2001 7.61217 8.2001 7.4C8.2001 7.18783 8.11581 6.98434 7.96578 6.83431C7.81575 6.68428 7.61227 6.6 7.4001 6.6ZM10.6001 6.6C10.3879 6.6 10.1844 6.68428 10.0344 6.83431C9.88438 6.98434 9.8001 7.18783 9.8001 7.4C9.8001 7.61217 9.88438 7.81566 10.0344 7.96568C10.1844 8.11571 10.3879 8.2 10.6001 8.2C10.8123 8.2 11.0158 8.11571 11.1658 7.96568C11.3158 7.81566 11.4001 7.61217 11.4001 7.4C11.4001 7.18783 11.3158 6.98434 11.1658 6.83431C11.0158 6.68428 10.8123 6.6 10.6001 6.6Z" fill="#526272"/>
</svg>
