<svg width="14" height="14" viewBox="0 0 14 14" fill="none" xmlns="http://www.w3.org/2000/svg">
<path d="M13.9595 0.791119C13.8895 0.642553 13.74 0.547791 13.5757 0.547791H0.424336C0.260099 0.547791 0.110628 0.642553 0.0405321 0.791119C-0.0295075 0.939684 -0.00755647 1.11529 0.0969372 1.24202L5.15252 7.37382V13.0279C5.15252 13.1747 5.22838 13.3111 5.35308 13.3885C5.42142 13.4308 5.49898 13.4522 5.57683 13.4522C5.64115 13.4522 5.70571 13.4376 5.76522 13.4081L8.60573 12.0002C8.75005 11.9287 8.84136 11.7817 8.84159 11.6206L8.84713 7.37399L13.903 1.24196C14.0075 1.11529 14.0296 0.939628 13.9595 0.791119ZM8.09571 6.95149C8.03319 7.0273 7.99891 7.12252 7.9988 7.22085L7.99336 11.3566L6.0012 12.344V7.22141C6.0012 7.12291 5.96697 7.02747 5.90428 6.95149L1.3241 1.39636H12.6759L8.09571 6.95149Z" fill="#526272"/>
</svg>
