<svg width="30" height="30" viewBox="0 0 30 30" fill="none" xmlns="http://www.w3.org/2000/svg">
<path d="M7.30578 24.4472C6.32995 24.4472 5.50151 24.1059 4.82047 23.4234C4.13943 22.7409 3.79891 21.9123 3.79891 20.9375H1.68359V7.88469C1.68359 7.25323 1.90234 6.71875 2.33984 6.28125C2.77734 5.84375 3.31172 5.625 3.94297 5.625H20.9623V10.3847H24.2795L28.318 15.7934V20.9375H26.0586C26.0586 21.9123 25.717 22.7409 25.0339 23.4234C24.351 24.1059 23.5217 24.4472 22.5461 24.4472C21.5705 24.4472 20.742 24.1059 20.0608 23.4234C19.3797 22.7409 19.0392 21.9123 19.0392 20.9375H10.818C10.818 21.915 10.4765 22.7443 9.79359 23.4253C9.11068 24.1066 8.28141 24.4472 7.30578 24.4472ZM7.30859 22.5722C7.76693 22.5722 8.15391 22.4143 8.46953 22.0984C8.78516 21.7828 8.94297 21.3958 8.94297 20.9375C8.94297 20.4792 8.78516 20.0921 8.46953 19.7762C8.15391 19.4606 7.76693 19.3028 7.30859 19.3028C6.85026 19.3028 6.46318 19.4606 6.14734 19.7762C5.83172 20.0921 5.67391 20.4792 5.67391 20.9375C5.67391 21.3958 5.83172 21.7828 6.14734 22.0984C6.46318 22.4143 6.85026 22.5722 7.30859 22.5722ZM3.55859 19.0625H4.46234C4.72839 18.5994 5.11255 18.2111 5.61484 17.8978C6.11734 17.5845 6.68193 17.4278 7.30859 17.4278C7.91901 17.4278 8.47943 17.5825 8.98984 17.8919C9.50026 18.2013 9.88849 18.5915 10.1545 19.0625H19.0873V7.5H3.94297C3.84693 7.5 3.7588 7.5401 3.67859 7.62031C3.59859 7.70031 3.55859 7.78844 3.55859 7.88469V19.0625ZM22.5489 22.5722C23.0072 22.5722 23.3942 22.4143 23.7098 22.0984C24.0257 21.7828 24.1836 21.3958 24.1836 20.9375C24.1836 20.4792 24.0257 20.0921 23.7098 19.7762C23.3942 19.4606 23.0072 19.3028 22.5489 19.3028C22.0906 19.3028 21.7035 19.4606 21.3877 19.7762C21.072 20.0921 20.9142 20.4792 20.9142 20.9375C20.9142 21.3958 21.072 21.7828 21.3877 22.0984C21.7035 22.4143 22.0906 22.5722 22.5489 22.5722ZM20.9623 16.5625H26.5633L23.318 12.2597H20.9623V16.5625Z" fill="#25B757"/>
</svg>
