<svg width="30" height="30" viewBox="0 0 30 30" fill="none" xmlns="http://www.w3.org/2000/svg">
<path d="M12.25 16.8606L13.2837 13.4662L10.565 11.3703H13.9472L15 7.99031L16.0528 11.3703H19.435L16.6972 13.4662L17.7306 16.8606L15 14.75L12.25 16.8606ZM8.125 27.7884V18.8413C7.33333 18.0144 6.71875 17.0584 6.28125 15.9734C5.84375 14.8886 5.625 13.7308 5.625 12.5C5.625 9.88458 6.53365 7.66823 8.35094 5.85094C10.1682 4.03365 12.3846 3.125 15 3.125C17.6154 3.125 19.8318 4.03365 21.6491 5.85094C23.4664 7.66823 24.375 9.88458 24.375 12.5C24.375 13.7308 24.1562 14.8886 23.7188 15.9734C23.2812 17.0584 22.6667 18.0144 21.875 18.8413V27.7884L15 25.6009L8.125 27.7884ZM15 20C17.0833 20 18.8542 19.2708 20.3125 17.8125C21.7708 16.3542 22.5 14.5833 22.5 12.5C22.5 10.4167 21.7708 8.64583 20.3125 7.1875C18.8542 5.72917 17.0833 5 15 5C12.9167 5 11.1458 5.72917 9.6875 7.1875C8.22917 8.64583 7.5 10.4167 7.5 12.5C7.5 14.5833 8.22917 16.3542 9.6875 17.8125C11.1458 19.2708 12.9167 20 15 20ZM10 25.0431L15 23.7019L20 25.0431V20.3991C19.2869 20.8639 18.5065 21.226 17.6588 21.4856C16.8108 21.7452 15.9246 21.875 15 21.875C14.0754 21.875 13.1892 21.7452 12.3413 21.4856C11.4935 21.226 10.7131 20.8639 10 20.3991V25.0431Z" fill="#25B757"/>
</svg>
