<svg width="30" height="30" viewBox="0 0 30 30" fill="none" xmlns="http://www.w3.org/2000/svg">
<path d="M15 27.7403V25.8653H23.3653C23.4776 25.8653 23.5698 25.8293 23.6419 25.7572C23.714 25.6851 23.75 25.5929 23.75 25.4806V24.375H19.3269V15.5288H23.75V13.75C23.75 11.3333 22.8958 9.27083 21.1875 7.5625C19.4792 5.85417 17.4167 5 15 5C12.5833 5 10.5208 5.85417 8.8125 7.5625C7.10417 9.27083 6.25 11.3333 6.25 13.75V15.5288H10.6731V24.375H6.63469C6.00323 24.375 5.46875 24.1563 5.03125 23.7188C4.59375 23.2813 4.375 22.7468 4.375 22.1153V13.75C4.375 12.2885 4.65385 10.9135 5.21156 9.625C5.76927 8.33646 6.53052 7.2099 7.49531 6.24531C8.4599 5.28052 9.58646 4.51927 10.875 3.96156C12.1635 3.40385 13.5385 3.125 15 3.125C16.4615 3.125 17.8365 3.40385 19.125 3.96156C20.4135 4.51927 21.5401 5.28052 22.5047 6.24531C23.4695 7.2099 24.2307 8.33646 24.7884 9.625C25.3461 10.9135 25.625 12.2885 25.625 13.75V25.4806C25.625 26.1121 25.4062 26.6466 24.9688 27.0841C24.5312 27.5216 23.9968 27.7403 23.3653 27.7403H15ZM6.63469 22.5H8.79813V17.4038H6.25V22.1153C6.25 22.2276 6.28604 22.3198 6.35813 22.3919C6.43021 22.464 6.5224 22.5 6.63469 22.5ZM21.2019 22.5H23.75V17.4038H21.2019V22.5ZM6.63469 17.4038H6.25H8.79813H6.63469Z" fill="#25B757"/>
</svg>
