<svg width="43" height="43" viewBox="0 0 43 43" fill="none" xmlns="http://www.w3.org/2000/svg">
<path d="M15.5996 39.5205L6.02715 23.161C5.42834 22.1376 5.42834 20.8624 6.02715 19.839L15.5996 3.47947C15.979 2.83115 16.6655 2.43396 17.4067 2.43396C18.1479 2.43396 18.8344 2.83115 19.2137 3.47947L25.5079 14.2364C26.0828 15.2189 27.1231 15.8208 28.2463 15.8208H31.1448C31.7631 15.8208 32.1458 15.135 31.8294 14.5942L24.2169 1.58433C23.6421 0.601884 22.6018 0 21.4786 0H13.8688C12.7456 0 11.7053 0.601884 11.1305 1.58433L0.449107 19.839C-0.149702 20.8624 -0.149702 22.1376 0.449107 23.161L11.1305 41.4157C11.7053 42.3981 12.7456 43 13.8688 43H21.4786C22.6018 43 23.6421 42.3981 24.2169 41.4157L31.8294 28.4058C32.1458 27.865 31.7631 27.1792 31.1448 27.1792H28.2463C27.1231 27.1792 26.0828 27.7811 25.5079 28.7636L19.2137 39.5205C18.8344 40.1689 18.1479 40.566 17.4067 40.566C16.6655 40.566 15.979 40.1689 15.5996 39.5205Z" fill="#25B757"/>
<path fill-rule="evenodd" clip-rule="evenodd" d="M23.2837 9.24326L20.4947 4.47675L11.5057 19.839C10.9069 20.8624 10.9069 22.1376 11.5057 23.161L20.4947 38.5232L23.2837 33.7567L17.0838 23.161C16.485 22.1376 16.485 20.8624 17.0838 19.839L23.2837 9.24326Z" fill="#526272"/>
<path d="M36.5645 14.2364L29.6586 2.43396L29.1614 1.58433C28.5866 0.601884 27.5463 0 26.4231 0H27.4375H32.5352C33.6584 0 34.6987 0.601884 35.2736 1.58433L42.886 14.5942C43.2024 15.135 42.8197 15.8208 42.2014 15.8208H39.3029C38.1797 15.8208 37.1394 15.2189 36.5645 14.2364Z" fill="#526272"/>
<path d="M36.5645 28.7636L30.2703 39.5205L29.1614 41.4157C28.5866 42.3981 27.5463 43 26.4231 43H27.4375H32.5352C33.6584 43 34.6987 42.3981 35.2736 41.4157L42.886 28.4058C43.2024 27.865 42.8197 27.1792 42.2014 27.1792H39.3029C38.1797 27.1792 37.1394 27.7811 36.5645 28.7636Z" fill="#526272"/>
<g opacity="0.3">
<path d="M20.411 38.0857L23.3421 33.4417L20.1303 28.3531L19.7691 28.9255L17.1992 32.9971L20.411 38.0857Z" fill="#526272"/>
<path d="M20.411 4.91431L23.3421 9.55831L20.1303 14.6469L17.1992 10.0029L20.411 4.91431Z" fill="#526272"/>
</g>
</svg>
