<svg width="30" height="30" viewBox="0 0 30 30" fill="none" xmlns="http://www.w3.org/2000/svg">
<path d="M19.3412 20.6587L20.6588 19.3413L15.9375 14.62V8.75H14.0625V15.3797L19.3412 20.6587ZM15.0022 26.875C13.3597 26.875 11.8158 26.5633 10.3706 25.94C8.92542 25.3167 7.66833 24.4707 6.59937 23.4022C5.53042 22.3336 4.68406 21.0771 4.06031 19.6325C3.43677 18.1879 3.125 16.6445 3.125 15.0022C3.125 13.3597 3.43667 11.8158 4.06 10.3706C4.68333 8.92542 5.52927 7.66833 6.59781 6.59937C7.66635 5.53042 8.92292 4.68406 10.3675 4.06031C11.8121 3.43677 13.3555 3.125 14.9978 3.125C16.6403 3.125 18.1842 3.43667 19.6294 4.06C21.0746 4.68333 22.3317 5.52927 23.4006 6.59781C24.4696 7.66635 25.3159 8.92292 25.9397 10.3675C26.5632 11.8121 26.875 13.3555 26.875 14.9978C26.875 16.6403 26.5633 18.1842 25.94 19.6294C25.3167 21.0746 24.4707 22.3317 23.4022 23.4006C22.3336 24.4696 21.0771 25.3159 19.6325 25.9397C18.1879 26.5632 16.6445 26.875 15.0022 26.875ZM15 25C17.7708 25 20.1302 24.026 22.0781 22.0781C24.026 20.1302 25 17.7708 25 15C25 12.2292 24.026 9.86979 22.0781 7.92188C20.1302 5.97396 17.7708 5 15 5C12.2292 5 9.86979 5.97396 7.92188 7.92188C5.97396 9.86979 5 12.2292 5 15C5 17.7708 5.97396 20.1302 7.92188 22.0781C9.86979 24.026 12.2292 25 15 25Z" fill="#25B757"/>
</svg>
