<svg width="30" height="30" viewBox="0 0 30 30" fill="none" xmlns="http://www.w3.org/2000/svg">
<path d="M26.1972 17.7525L17.7525 26.1972C17.5254 26.423 17.2699 26.5925 16.9859 26.7056C16.702 26.8185 16.4189 26.875 16.1366 26.875C15.8541 26.875 15.5716 26.8185 15.2891 26.7056C15.0066 26.5925 14.7524 26.423 14.5266 26.1972L3.78375 15.4663C3.57063 15.2613 3.4075 15.0206 3.29437 14.7444C3.18146 14.4681 3.125 14.1775 3.125 13.8725V5.39656C3.125 4.77198 3.34573 4.23719 3.78719 3.79219C4.22885 3.3474 4.76531 3.125 5.39656 3.125H13.8725C14.1744 3.125 14.4668 3.18625 14.7497 3.30875C15.0328 3.43104 15.2781 3.59573 15.4856 3.80281L26.1972 14.5337C26.4261 14.7608 26.5931 15.0163 26.6981 15.3C26.8031 15.584 26.8556 15.8686 26.8556 16.1541C26.8556 16.4395 26.8031 16.7201 26.6981 16.9959C26.5931 17.272 26.4261 17.5242 26.1972 17.7525ZM16.4159 24.8797L24.8606 16.435C24.9406 16.355 24.9806 16.2608 24.9806 16.1525C24.9806 16.0444 24.9406 15.9503 24.8606 15.8703L14.0097 5.01188H5.39656C5.28448 5.01188 5.19031 5.04802 5.11406 5.12031C5.03802 5.19239 5 5.28448 5 5.39656V13.8534C5 13.9016 5.00802 13.9496 5.02406 13.9975C5.0401 14.0456 5.06813 14.0897 5.10813 14.1297L15.8509 24.8797C15.9311 24.9599 16.0253 25 16.1334 25C16.2416 25 16.3357 24.9599 16.4159 24.8797ZM8.15625 9.72344C8.59208 9.72344 8.96229 9.57156 9.26688 9.26781C9.57125 8.96406 9.72344 8.59511 9.72344 8.16094C9.72344 7.72365 9.57156 7.35198 9.26781 7.04594C8.96406 6.73969 8.5951 6.58656 8.16094 6.58656C7.72365 6.58656 7.35198 6.73917 7.04594 7.04437C6.73969 7.34958 6.58656 7.72021 6.58656 8.15625C6.58656 8.59208 6.73917 8.96229 7.04437 9.26687C7.34958 9.57125 7.72021 9.72344 8.15625 9.72344Z" fill="#25B757"/>
</svg>
