<svg width="30" height="30" viewBox="0 0 30 30" fill="none" xmlns="http://www.w3.org/2000/svg">
<path d="M12.5 14.6152C11.2969 14.6152 10.267 14.1869 9.41031 13.3302C8.55344 12.4734 8.125 11.4434 8.125 10.2402C8.125 9.03711 8.55344 8.00721 9.41031 7.15055C10.267 6.29367 11.2969 5.86523 12.5 5.86523C13.7031 5.86523 14.733 6.29367 15.5897 7.15055C16.4466 8.00721 16.875 9.03711 16.875 10.2402C16.875 11.4434 16.4466 12.4734 15.5897 13.3302C14.733 14.1869 13.7031 14.6152 12.5 14.6152ZM3.125 24.1346V21.3555C3.125 20.7243 3.28604 20.1526 3.60812 19.6405C3.93021 19.1285 4.37979 18.7322 4.95687 18.4518C5.99521 17.9343 7.11698 17.502 8.32219 17.1549C9.52719 16.808 10.9198 16.6346 12.5 16.6346H12.8653C12.9664 16.6346 13.0753 16.6474 13.1922 16.673C13.0657 16.9678 12.9613 17.2683 12.8787 17.5743C12.796 17.8805 12.7275 18.1923 12.6731 18.5096H12.5C11.0608 18.5096 9.78677 18.675 8.67781 19.0059C7.56885 19.3369 6.61531 19.7099 5.81719 20.1249C5.53365 20.2772 5.32656 20.4551 5.19594 20.6587C5.06531 20.8622 5 21.0945 5 21.3555V22.2596H12.875C12.9679 22.5769 13.0885 22.899 13.2369 23.2259C13.385 23.5527 13.548 23.8557 13.7259 24.1346H3.125ZM20.1322 25.0599L19.8534 23.4012C19.5553 23.313 19.2748 23.1977 19.0119 23.0552C18.7492 22.9125 18.4992 22.7338 18.2619 22.519L16.6778 23.0696L15.7884 21.5574L17.0819 20.4999C16.9921 20.1762 16.9472 19.8572 16.9472 19.543C16.9472 19.2291 16.9921 18.9102 17.0819 18.5865L15.8006 17.5046L16.69 15.9927L18.2619 16.5552C18.491 16.3404 18.7391 16.1638 19.0059 16.0252C19.2728 15.8865 19.5553 15.773 19.8534 15.6849L20.1322 14.0265H21.9109L22.1778 15.6849C22.4759 15.773 22.7584 15.8897 23.0253 16.0349C23.292 16.1799 23.5399 16.3662 23.7691 16.5937L25.3412 15.9927L26.2306 17.543L24.9494 18.6249C25.0392 18.9255 25.0841 19.2387 25.0841 19.5643C25.0841 19.8899 25.0392 20.2018 24.9494 20.4999L26.2428 21.5574L25.3534 23.0696L23.7691 22.519C23.532 22.7338 23.282 22.9125 23.0191 23.0552C22.7564 23.1977 22.4759 23.313 22.1778 23.4012L21.9109 25.0599H20.1322ZM21.0106 21.923C21.6654 21.923 22.2255 21.6899 22.6909 21.2237C23.1566 20.7574 23.3894 20.1969 23.3894 19.5421C23.3894 18.8873 23.1562 18.3272 22.69 17.8618C22.2238 17.3962 21.6632 17.1634 21.0084 17.1634C20.3539 17.1634 19.7938 17.3965 19.3281 17.8627C18.8625 18.329 18.6297 18.8895 18.6297 19.5443C18.6297 20.1989 18.8628 20.759 19.3291 21.2246C19.7953 21.6902 20.3558 21.923 21.0106 21.923ZM12.5 12.7402C13.1875 12.7402 13.776 12.4954 14.2656 12.0059C14.7552 11.5163 15 10.9277 15 10.2402C15 9.55273 14.7552 8.96419 14.2656 8.47461C13.776 7.98503 13.1875 7.74023 12.5 7.74023C11.8125 7.74023 11.224 7.98503 10.7344 8.47461C10.2448 8.96419 10 9.55273 10 10.2402C10 10.9277 10.2448 11.5163 10.7344 12.0059C11.224 12.4954 11.8125 12.7402 12.5 12.7402Z" fill="#25B757"/>
</svg>
