<svg width="13" height="22" viewBox="0 0 13 22" fill="none" xmlns="http://www.w3.org/2000/svg">
<path fill-rule="evenodd" clip-rule="evenodd" d="M6.24032 0H6.75967L6.78642 0.00372771C9.45068 0.375025 11.1692 1.62242 12.11 3.41405C13.0387 5.18265 13.1726 7.41186 12.8231 9.69023C12.1252 14.2391 9.46362 19.2209 6.77255 21.7444L6.5 22L6.22745 21.7444C3.53638 19.2209 0.874757 14.2391 0.176917 9.69023C-0.172609 7.41186 -0.038698 5.18265 0.890027 3.41405C1.83084 1.62242 3.54932 0.375025 6.21358 0.00372771L6.24032 0ZM6.29454 0.865452C3.85629 1.21182 2.39802 2.32841 1.60772 3.83341C0.802468 5.36687 0.652882 7.3752 0.986822 9.55198C1.63202 13.7577 4.0477 18.3702 6.5 20.8329C8.95229 18.3702 11.368 13.7577 12.0132 9.55198C12.3471 7.3752 12.1975 5.36687 11.3923 3.83341C10.602 2.32841 9.14371 1.21182 6.70546 0.865452H6.29454Z" fill="#526272"/>
<path fill-rule="evenodd" clip-rule="evenodd" d="M6.50012 10.0465C7.66528 10.0465 8.60982 9.05013 8.60982 7.82105C8.60982 6.59196 7.66528 5.5956 6.50012 5.5956C5.33496 5.5956 4.39041 6.59196 4.39041 7.82105C4.39041 9.05013 5.33496 10.0465 6.50012 10.0465ZM6.50012 10.9119C8.11839 10.9119 9.43027 9.5281 9.43027 7.82105C9.43027 6.11399 8.11839 4.73015 6.50012 4.73015C4.88184 4.73015 3.56997 6.11399 3.56997 7.82105C3.56997 9.5281 4.88184 10.9119 6.50012 10.9119Z" fill="#526272"/>
</svg>
