<svg width="22" height="22" viewBox="0 0 22 22" fill="none" xmlns="http://www.w3.org/2000/svg">
<path d="M7.5638 2.2915C4.6609 2.2915 2.29297 4.65943 2.29297 7.56234V14.4373C2.29297 17.3399 4.66081 19.7082 7.5638 19.7082H14.4388C17.3414 19.7082 19.7096 17.3399 19.7096 14.4373V7.56234C19.7096 4.65935 17.3413 2.2915 14.4388 2.2915H7.5638ZM7.5638 3.6665H14.4388C16.5981 3.6665 18.3346 5.40257 18.3346 7.56234V14.4373C18.3346 16.5966 16.598 18.3332 14.4388 18.3332H7.5638C5.40404 18.3332 3.66797 16.5967 3.66797 14.4373V7.56234C3.66797 5.40249 5.40396 3.6665 7.5638 3.6665ZM15.5846 5.49984C15.0782 5.49984 14.668 5.91005 14.668 6.4165C14.668 6.92296 15.0782 7.33317 15.5846 7.33317C16.0911 7.33317 16.5013 6.92296 16.5013 6.4165C16.5013 5.91005 16.0911 5.49984 15.5846 5.49984ZM11.0013 6.4165C8.47826 6.4165 6.41797 8.47679 6.41797 10.9998C6.41797 13.5229 8.47826 15.5832 11.0013 15.5832C13.5243 15.5832 15.5846 13.5229 15.5846 10.9998C15.5846 8.47679 13.5243 6.4165 11.0013 6.4165ZM11.0013 7.7915C12.7811 7.7915 14.2096 9.22005 14.2096 10.9998C14.2096 12.7796 12.7811 14.2082 11.0013 14.2082C9.22151 14.2082 7.79297 12.7796 7.79297 10.9998C7.79297 9.22005 9.22151 7.7915 11.0013 7.7915Z" fill="white"/>
</svg>
