<svg width="20" height="30" viewBox="0 0 20 30" fill="none" xmlns="http://www.w3.org/2000/svg">
<path d="M9.9999 0.600098C4.696 0.600098 0.399902 4.89619 0.399902 10.2001C0.399902 14.5853 2.71553 19.2985 4.99365 22.9501C7.27178 26.6017 9.5499 29.1938 9.5499 29.1938C9.66475 29.3228 9.82881 29.3978 9.9999 29.3978C10.171 29.3978 10.3351 29.3228 10.4499 29.1938C10.4499 29.1938 12.7304 26.5478 15.0062 22.8751C17.2819 19.2024 19.5999 14.5009 19.5999 10.2001C19.5999 4.89619 15.3038 0.600098 9.9999 0.600098ZM9.9999 1.8001C14.6569 1.8001 18.3999 5.54307 18.3999 10.2001C18.3999 14.0603 16.2179 18.6493 13.9937 22.2376C12.1304 25.2446 10.553 27.1806 9.9999 27.8438C9.44209 27.1853 7.86475 25.2915 6.00615 22.3126C3.78428 18.7501 1.5999 14.154 1.5999 10.2001C1.5999 5.54307 5.34287 1.8001 9.9999 1.8001ZM9.9999 6.6001C7.68662 6.6001 5.7999 8.48682 5.7999 10.8001C5.7999 13.1134 7.68662 15.0001 9.9999 15.0001C12.3132 15.0001 14.1999 13.1134 14.1999 10.8001C14.1999 8.48682 12.3132 6.6001 9.9999 6.6001ZM9.9999 7.8001C11.664 7.8001 12.9999 9.13603 12.9999 10.8001C12.9999 12.4642 11.664 13.8001 9.9999 13.8001C8.33584 13.8001 6.9999 12.4642 6.9999 10.8001C6.9999 9.13603 8.33584 7.8001 9.9999 7.8001Z" fill="#526272"/>
</svg>
