<svg width="225" height="43" viewBox="0 0 225 43" fill="none" xmlns="http://www.w3.org/2000/svg">
<path d="M15.5996 39.5205L6.02715 23.161C5.42834 22.1376 5.42834 20.8624 6.02715 19.839L15.5996 3.47947C15.979 2.83115 16.6655 2.43396 17.4067 2.43396C18.1479 2.43396 18.8344 2.83115 19.2137 3.47947L25.5079 14.2364C26.0828 15.2189 27.1231 15.8208 28.2463 15.8208H31.1448C31.7631 15.8208 32.1458 15.135 31.8294 14.5942L24.2169 1.58433C23.6421 0.601884 22.6018 0 21.4786 0H13.8688C12.7456 0 11.7053 0.601884 11.1305 1.58433L0.449107 19.839C-0.149702 20.8624 -0.149702 22.1376 0.449107 23.161L11.1305 41.4157C11.7053 42.3981 12.7456 43 13.8688 43H21.4786C22.6018 43 23.6421 42.3981 24.2169 41.4157L31.8294 28.4058C32.1458 27.865 31.7631 27.1792 31.1448 27.1792H28.2463C27.1231 27.1792 26.0828 27.7811 25.5079 28.7636L19.2137 39.5205C18.8344 40.1689 18.1479 40.566 17.4067 40.566C16.6655 40.566 15.979 40.1689 15.5996 39.5205Z" fill="#25B757"/>
<path fill-rule="evenodd" clip-rule="evenodd" d="M23.2842 9.24326L20.4952 4.47675L11.5062 19.839C10.9074 20.8624 10.9074 22.1376 11.5062 23.161L20.4952 38.5232L23.2842 33.7567L17.0843 23.161C16.4855 22.1376 16.4855 20.8624 17.0843 19.839L23.2842 9.24326Z" fill="#526272"/>
<path d="M36.565 14.2364L29.6591 2.43396L29.1619 1.58433C28.5871 0.601884 27.5468 0 26.4236 0H27.438H32.5357C33.6589 0 34.6992 0.601884 35.274 1.58433L42.8865 14.5942C43.2029 15.135 42.8202 15.8208 42.2019 15.8208H39.3034C38.1802 15.8208 37.1399 15.2189 36.565 14.2364Z" fill="#526272"/>
<path d="M36.565 28.7636L30.2708 39.5205L29.1619 41.4157C28.5871 42.3981 27.5468 43 26.4236 43H27.438H32.5357C33.6589 43 34.6992 42.3981 35.274 41.4157L42.8865 28.4058C43.2029 27.865 42.8202 27.1792 42.2019 27.1792H39.3034C38.1802 27.1792 37.1399 27.7811 36.565 28.7636Z" fill="#526272"/>
<path d="M67.432 31.36C64.904 31.36 62.808 30.528 61.144 28.864C59.496 27.184 58.672 25.096 58.672 22.6C58.672 20.104 59.496 18.024 61.144 16.36C62.808 14.68 64.904 13.84 67.432 13.84C68.952 13.84 70.36 14.2 71.656 14.92C72.952 15.64 73.968 16.608 74.704 17.824L70.984 19.96C70.664 19.368 70.184 18.904 69.544 18.568C68.92 18.216 68.216 18.04 67.432 18.04C66.088 18.04 65 18.464 64.168 19.312C63.352 20.144 62.944 21.24 62.944 22.6C62.944 23.96 63.352 25.064 64.168 25.912C65 26.744 66.088 27.16 67.432 27.16C68.216 27.16 68.92 26.992 69.544 26.656C70.184 26.304 70.664 25.824 70.984 25.216L74.704 27.376C73.968 28.608 72.952 29.584 71.656 30.304C70.376 31.008 68.968 31.36 67.432 31.36ZM86.8499 22.312C88.2579 23.144 88.9619 24.4 88.9619 26.08C88.9619 27.568 88.4499 28.76 87.4259 29.656C86.4019 30.552 85.0339 31 83.3219 31H76.2419V14.2H82.8659C84.5459 14.2 85.8899 14.632 86.8979 15.496C87.9059 16.344 88.4099 17.504 88.4099 18.976C88.4099 20.384 87.8899 21.496 86.8499 22.312ZM82.7459 18.04H80.5379V20.68H82.7459C83.1299 20.68 83.4499 20.568 83.7059 20.344C83.9779 20.104 84.1139 19.776 84.1139 19.36C84.1139 18.96 83.9859 18.64 83.7299 18.4C83.4739 18.16 83.1459 18.04 82.7459 18.04ZM83.2019 27.16C83.6339 27.16 83.9859 27.032 84.2579 26.776C84.5299 26.504 84.6659 26.16 84.6659 25.744C84.6659 25.312 84.5299 24.968 84.2579 24.712C83.9859 24.456 83.6339 24.328 83.2019 24.328H80.5379V27.16H83.2019ZM94.9754 26.968H101.479V31H90.6794V14.2H101.359V18.208H94.9754V20.536H100.759V24.496H94.9754V26.968ZM115.043 14.2V18.352H110.891V31H106.595V18.352H102.443V14.2H115.043ZM129.176 26.848H130.976V34.216H126.704V31H118.856V34.216H114.56V26.848H116.336C117.104 25.616 117.488 23.84 117.488 21.52V14.2H129.176V26.848ZM120.8 26.848H124.904V18.184H121.76V21.568C121.76 23.808 121.44 25.568 120.8 26.848ZM146.892 28.84C145.196 30.52 143.116 31.36 140.652 31.36C138.188 31.36 136.1 30.52 134.388 28.84C132.692 27.144 131.844 25.064 131.844 22.6C131.844 20.136 132.692 18.064 134.388 16.384C136.1 14.688 138.188 13.84 140.652 13.84C143.116 13.84 145.196 14.688 146.892 16.384C148.604 18.064 149.46 20.136 149.46 22.6C149.46 25.064 148.604 27.144 146.892 28.84ZM137.412 25.888C138.276 26.736 139.356 27.16 140.652 27.16C141.948 27.16 143.028 26.736 143.892 25.888C144.756 25.024 145.188 23.928 145.188 22.6C145.188 21.272 144.756 20.184 143.892 19.336C143.028 18.472 141.948 18.04 140.652 18.04C139.356 18.04 138.276 18.472 137.412 19.336C136.548 20.184 136.116 21.272 136.116 22.6C136.116 23.928 136.548 25.024 137.412 25.888ZM157.981 14.2C159.677 14.2 161.101 14.752 162.253 15.856C163.405 16.96 163.981 18.368 163.981 20.08C163.981 21.792 163.405 23.2 162.253 24.304C161.101 25.408 159.677 25.96 157.981 25.96H155.749V31H151.453V14.2H157.981ZM157.981 21.88C158.461 21.88 158.861 21.712 159.181 21.376C159.517 21.04 159.685 20.608 159.685 20.08C159.685 19.552 159.517 19.128 159.181 18.808C158.861 18.472 158.461 18.304 157.981 18.304H155.749V21.88H157.981ZM174.643 22.336C176.147 23.184 176.899 24.496 176.899 26.272C176.899 27.808 176.323 29.04 175.171 29.968C174.019 30.896 172.499 31.36 170.611 31.36C167.347 31.36 165.179 30.048 164.107 27.424L167.779 25.312C168.259 26.64 169.203 27.304 170.611 27.304C171.939 27.304 172.603 26.808 172.603 25.816C172.603 24.952 172.067 24.472 170.995 24.376L168.451 24.352V20.632H170.107C171.403 20.632 172.051 20.168 172.051 19.24C172.051 18.312 171.475 17.848 170.323 17.848C169.171 17.848 168.371 18.416 167.923 19.552L164.323 17.464C164.835 16.328 165.611 15.44 166.651 14.8C167.707 14.16 168.955 13.84 170.395 13.84C172.155 13.84 173.587 14.304 174.691 15.232C175.795 16.144 176.347 17.36 176.347 18.88C176.347 20.352 175.779 21.504 174.643 22.336ZM187.641 14.2H191.913V31H187.641V24.544H182.913V31H178.617V14.2H182.913V20.416H187.641V14.2ZM204.826 31L204.106 28.576H198.514L197.794 31H193.138L198.682 14.2H203.914L209.458 31H204.826ZM199.618 24.88H203.002L201.298 19.168L199.618 24.88ZM224.599 31H219.799L214.975 23.488V31H210.679V14.2H214.975V21.256L219.559 14.2H224.359L219.031 22.36L224.599 31Z" fill="#526272"/>
<g opacity="0.3">
<path d="M20.4117 38.0857L23.3428 33.4417L20.1311 28.3531L19.7698 28.9255L17.2 32.9971L20.4117 38.0857Z" fill="#526272"/>
<path d="M20.4117 4.91431L23.3428 9.55831L20.1311 14.6469L17.2 10.0029L20.4117 4.91431Z" fill="#526272"/>
</g>
</svg>
