<svg width="235" height="25" viewBox="0 0 235 25" fill="none" xmlns="http://www.w3.org/2000/svg">
<path d="M12.006 21.464C9.86 21.464 7.92667 21.0193 6.206 20.13C4.48533 19.2213 3.132 17.9647 2.146 16.36C1.17933 14.736 0.696 12.8993 0.696 10.85C0.696 8.80067 1.17933 6.97367 2.146 5.369C3.132 3.745 4.48533 2.48833 6.206 1.599C7.92667 0.690333 9.86 0.235999 12.006 0.235999C13.978 0.235999 15.7373 0.584 17.284 1.28C18.8307 1.976 20.1067 2.98133 21.112 4.296L16.791 8.153C15.5343 6.56767 14.0553 5.775 12.354 5.775C10.9233 5.775 9.773 6.239 8.903 7.167C8.033 8.07567 7.598 9.30333 7.598 10.85C7.598 12.3967 8.033 13.634 8.903 14.562C9.773 15.4707 10.9233 15.925 12.354 15.925C14.0553 15.925 15.5343 15.1323 16.791 13.547L21.112 17.404C20.1067 18.7187 18.8307 19.724 17.284 20.42C15.7373 21.116 13.978 21.464 12.006 21.464ZM38.7818 10.357C39.9225 10.763 40.7925 11.372 41.3918 12.184C41.9912 12.9767 42.2908 13.953 42.2908 15.113C42.2908 16.9303 41.5658 18.3707 40.1158 19.434C38.6852 20.478 36.6552 21 34.0258 21H23.1798V0.699999H33.4748C35.9882 0.699999 37.9312 1.164 39.3038 2.092C40.6958 3.02 41.3918 4.325 41.3918 6.007C41.3918 6.97367 41.1598 7.82433 40.6958 8.559C40.2512 9.29367 39.6132 9.893 38.7818 10.357ZM29.9078 8.501H32.8078C33.9292 8.501 34.4898 8.008 34.4898 7.022C34.4898 5.99733 33.9292 5.485 32.8078 5.485H29.9078V8.501ZM33.7068 16.215C34.8282 16.215 35.3888 15.6737 35.3888 14.591C35.3888 13.547 34.8282 13.025 33.7068 13.025H29.9078V16.215H33.7068ZM61.6096 15.838V21H44.7316V0.699999H61.2326V5.862H51.4596V8.24H60.0436V13.17H51.4596V15.838H61.6096ZM81.6699 6.007H75.7249V21H68.9969V6.007H63.0519V0.699999H81.6699V6.007ZM105.531 15.693V24.973H99.2668V21H87.7248V24.973H81.4608V15.693H82.0408C83.2201 15.693 84.0514 14.9487 84.5348 13.46C85.0181 11.9713 85.3274 9.777 85.4628 6.877L85.6948 0.699999H102.863V15.693H105.531ZM91.4078 7.457C91.3304 9.40967 91.1758 11.0723 90.9438 12.445C90.7118 13.7983 90.3541 14.881 89.8708 15.693H96.1348V6.007H91.4658L91.4078 7.457ZM118.153 21.464C115.969 21.464 114.006 21.0097 112.266 20.101C110.526 19.1923 109.163 17.9357 108.177 16.331C107.191 14.707 106.698 12.88 106.698 10.85C106.698 8.82 107.191 7.00267 108.177 5.398C109.163 3.774 110.526 2.50767 112.266 1.599C114.006 0.690333 115.969 0.235999 118.153 0.235999C120.338 0.235999 122.3 0.690333 124.04 1.599C125.78 2.50767 127.143 3.774 128.129 5.398C129.115 7.00267 129.608 8.82 129.608 10.85C129.608 12.88 129.115 14.707 128.129 16.331C127.143 17.9357 125.78 19.1923 124.04 20.101C122.3 21.0097 120.338 21.464 118.153 21.464ZM118.153 15.925C119.004 15.925 119.768 15.722 120.444 15.316C121.14 14.8907 121.691 14.301 122.097 13.547C122.503 12.7737 122.706 11.8747 122.706 10.85C122.706 9.82533 122.503 8.936 122.097 8.182C121.691 7.40867 121.14 6.819 120.444 6.413C119.768 5.98767 119.004 5.775 118.153 5.775C117.303 5.775 116.529 5.98767 115.833 6.413C115.157 6.819 114.615 7.40867 114.209 8.182C113.803 8.936 113.6 9.82533 113.6 10.85C113.6 11.8747 113.803 12.7737 114.209 13.547C114.615 14.301 115.157 14.8907 115.833 15.316C116.529 15.722 117.303 15.925 118.153 15.925ZM141.844 0.699999C143.72 0.699999 145.353 1.00933 146.745 1.628C148.137 2.24667 149.21 3.136 149.964 4.296C150.718 5.456 151.095 6.80933 151.095 8.356C151.095 9.90267 150.718 11.256 149.964 12.416C149.21 13.576 148.137 14.4653 146.745 15.084C145.353 15.7027 143.72 16.012 141.844 16.012H138.915V21H132.071V0.699999H141.844ZM141.409 10.734C142.337 10.734 143.033 10.531 143.497 10.125C143.961 9.69967 144.193 9.11 144.193 8.356C144.193 7.602 143.961 7.022 143.497 6.616C143.033 6.19067 142.337 5.978 141.409 5.978H138.915V10.734H141.409ZM163.429 10.386C164.802 10.6953 165.875 11.285 166.648 12.155C167.441 13.025 167.837 14.0787 167.837 15.316C167.837 16.4953 167.48 17.5297 166.764 18.419C166.049 19.3083 165.102 19.985 163.922 20.449C162.743 20.913 161.467 21.145 160.094 21.145C158.76 21.145 157.446 20.913 156.15 20.449C154.874 19.985 153.734 19.2987 152.728 18.39L153.337 17.346C154.227 18.1773 155.242 18.8057 156.382 19.231C157.542 19.637 158.722 19.84 159.92 19.84C161.061 19.84 162.124 19.6563 163.11 19.289C164.096 18.9023 164.879 18.361 165.459 17.665C166.039 16.9497 166.329 16.1087 166.329 15.142C166.329 13.8467 165.827 12.851 164.821 12.155C163.816 11.4397 162.405 11.082 160.587 11.082H156.411V9.806H160.529C162.076 9.806 163.284 9.47733 164.154 8.82C165.024 8.14333 165.459 7.21533 165.459 6.036C165.459 4.72133 164.908 3.687 163.806 2.933C162.724 2.15967 161.37 1.773 159.746 1.773C158.76 1.773 157.765 1.918 156.759 2.208C155.773 2.498 154.826 2.94267 153.917 3.542L153.366 2.295C154.372 1.67633 155.416 1.21233 156.498 0.902999C157.6 0.593666 158.693 0.438999 159.775 0.438999C161.09 0.438999 162.289 0.661332 163.371 1.106C164.473 1.53133 165.343 2.15967 165.981 2.991C166.639 3.803 166.967 4.76 166.967 5.862C166.967 6.964 166.648 7.91133 166.01 8.704C165.392 9.49667 164.531 10.0573 163.429 10.386ZM190.134 0.699999V21H188.655V11.343H175.083V21H173.604V0.699999H175.083V10.038H188.655V0.699999H190.134ZM210.297 15.287H198.523L195.942 21H194.347L203.685 0.699999H205.164L214.502 21H212.907L210.297 15.287ZM209.746 14.04L204.41 2.324L199.103 14.04H209.746ZM225.069 11.372H220.197V21H218.718V0.699999H220.197V10.038H225.098L232.377 0.699999H234.03L226.258 10.589L234.552 21H232.812L225.069 11.372Z" fill="white"/>
</svg>
