<svg width="13" height="13" viewBox="0 0 13 13" fill="none" xmlns="http://www.w3.org/2000/svg">
<path fill-rule="evenodd" clip-rule="evenodd" d="M10.6955 0.382684C11.2283 -0.133185 12.0772 -0.126692 12.6021 0.397266C13.1384 0.932703 13.1317 1.80285 12.5872 2.33002L12.0891 2.81233L10.1675 0.893935L10.6955 0.382684ZM2.3976 11.5302L10.8831 3.05864C11.0207 2.9213 11.2437 2.9213 11.3813 3.05864C11.5189 3.19598 11.5189 3.41865 11.3813 3.55599L2.58776 12.335L0.662766 12.9735C0.269644 13.1039 -0.104098 12.7308 0.0265452 12.3383L0.666231 10.4167L9.45975 1.63765C9.59732 1.50031 9.82036 1.50031 9.95793 1.63765C10.0955 1.77499 10.0955 1.99766 9.95793 2.135L1.47241 10.6065L2.3976 11.5302Z" fill="#526272"/>
</svg>
