<svg width="28" height="28" viewBox="0 0 28 28" fill="none" xmlns="http://www.w3.org/2000/svg">
<path d="M6.10393 0.792993C5.64221 0.755493 5.12893 0.889087 4.65549 1.2219C4.2383 1.51252 3.3383 2.22737 2.4969 3.03596C2.07737 3.43909 1.67659 3.85862 1.36721 4.27112C1.05549 4.68362 0.783616 5.06096 0.800023 5.6094C0.816429 6.10159 0.865648 7.55705 1.9133 9.78831C2.96096 12.0172 4.99299 15.0758 8.95627 19.0414C12.9219 23.0071 15.9805 25.0391 18.2094 26.0867C20.4383 27.1344 21.8961 27.1836 22.3883 27.2C22.9344 27.2164 23.3117 26.9446 23.7242 26.6328C24.1367 26.3211 24.5563 25.9227 24.9594 25.5031C25.7656 24.6617 26.4805 23.7617 26.7711 23.3446C27.4344 22.4 27.3242 21.2844 26.586 20.7664C26.1219 20.4406 21.8539 17.6 21.2117 17.2063C20.5602 16.8078 19.8102 16.9883 19.1399 17.3422C18.6125 17.6211 17.1852 18.4391 16.7774 18.6735C16.4703 18.4789 15.3055 17.7031 12.8 15.1977C10.2922 12.6922 9.51877 11.5274 9.32424 11.2203C9.55862 10.8125 10.3742 9.39221 10.6555 8.85549C11.0071 8.18752 11.2039 7.43049 10.7844 6.77424C10.6086 6.49534 9.8094 5.27893 9.00315 4.05784C8.19455 2.83674 7.42815 1.67893 7.22893 1.40237V1.40002C6.96877 1.04143 6.5633 0.830493 6.10393 0.792993ZM5.99377 2.01877C6.15784 2.03987 6.25627 2.10549 6.25627 2.10549C6.35237 2.23909 7.19377 3.50002 8.00002 4.71877C8.80627 5.93987 9.62893 7.19143 9.7719 7.41877C9.79534 7.45393 9.82815 7.85237 9.59377 8.29534V8.29768C9.32893 8.80159 8.09377 10.9602 8.09377 10.9602L7.92268 11.2625L8.09846 11.5625C8.09846 11.5625 9.01955 13.1164 11.9492 16.0461C14.8813 18.9758 16.4352 19.8992 16.4352 19.8992L16.7352 20.075L17.0375 19.9039C17.0375 19.9039 19.1914 18.6711 19.7 18.4039C20.143 18.1719 20.5414 18.2024 20.5883 18.2305C21.0031 18.486 25.6133 21.5492 25.8969 21.7485C25.9063 21.7555 26.1571 22.1352 25.7914 22.6555H25.7891C25.5688 22.9719 24.8469 23.8883 24.0946 24.6711C23.7172 25.0625 23.3305 25.4281 23.0024 25.6742C22.6742 25.9203 22.3813 25.9977 22.4282 26C21.9172 25.9836 20.7899 25.9719 18.7203 24.9992C16.6508 24.0289 13.6977 22.086 9.80471 18.1906C5.91409 14.3 3.97112 11.3469 2.99846 9.27502C2.02815 7.20549 2.01643 6.07815 2.00002 5.56956C2.00237 5.61643 2.07971 5.32112 2.3258 4.99299C2.5719 4.66487 2.93518 4.27581 3.32659 3.89846C4.11174 3.14612 5.0258 2.42424 5.34221 2.20393V2.20627C5.60237 2.02346 5.82971 2.00002 5.99377 2.01877Z" fill="#526272"/>
</svg>
