<svg width="28" height="28" viewBox="0 0 28 28" fill="none" xmlns="http://www.w3.org/2000/svg">
<path d="M14.0002 0.199951C6.35888 0.199951 0.200195 6.35864 0.200195 14C0.200195 21.6413 6.35888 27.7999 14.0002 27.7999C21.6415 27.7999 27.8002 21.6413 27.8002 14C27.8002 6.35864 21.6415 0.199951 14.0002 0.199951ZM14.0002 1.39995C20.9989 1.39995 26.6002 7.00126 26.6002 14C26.6002 20.9986 20.9989 26.5999 14.0002 26.5999C7.00151 26.5999 1.4002 20.9986 1.4002 14C1.4002 7.00126 7.00151 1.39995 14.0002 1.39995ZM13.9908 3.19175C13.8319 3.19423 13.6804 3.25967 13.5697 3.37369C13.459 3.48772 13.398 3.64102 13.4002 3.79995V12.3042C12.6916 12.5436 12.2002 13.1933 12.2002 14C12.2002 14.2828 12.2652 14.5437 12.3736 14.7781L8.77598 18.3757C8.71839 18.431 8.67242 18.4972 8.64075 18.5705C8.60908 18.6438 8.59234 18.7227 8.59153 18.8025C8.59072 18.8823 8.60584 18.9615 8.63602 19.0354C8.66619 19.1093 8.71081 19.1764 8.76725 19.2329C8.8237 19.2893 8.89084 19.334 8.96475 19.3641C9.03866 19.3943 9.11784 19.4094 9.19767 19.4086C9.27749 19.4078 9.35635 19.3911 9.42963 19.3594C9.50291 19.3277 9.56913 19.2818 9.62441 19.2242L13.2221 15.6265C13.4565 15.7349 13.7174 15.8 14.0002 15.8C15.0202 15.8 15.8002 15.0199 15.8002 14C15.8002 13.1933 15.3088 12.5436 14.6002 12.3042V3.79995C14.6013 3.71968 14.5863 3.64 14.556 3.56563C14.5258 3.49127 14.4809 3.42373 14.4241 3.36702C14.3673 3.31031 14.2996 3.26557 14.2252 3.23547C14.1508 3.20536 14.0711 3.19049 13.9908 3.19175Z" fill="#3B4353"/>
</svg>
