<svg width="22" height="22" viewBox="0 0 22 22" fill="none" xmlns="http://www.w3.org/2000/svg">
<path d="M17.7349 21.56C17.7274 21.56 17.7199 21.56 17.7124 21.56C14.1049 21.4419 9.87869 17.945 6.96682 15.0313C4.05119 12.1175 0.554315 7.8894 0.441815 4.29877C0.400566 3.03877 3.49244 0.798148 3.52432 0.775648C4.32682 0.216898 5.21744 0.415648 5.58307 0.921898C5.83057 1.26502 8.17432 4.81627 8.42932 5.2194C8.69369 5.63752 8.65431 6.26002 8.32432 6.8844C8.14244 7.23127 7.53869 8.29252 7.25557 8.78752C7.56119 9.22252 8.36932 10.2894 10.0381 11.9581C11.7087 13.6269 12.7737 14.4369 13.2106 14.7425C13.7056 14.4594 14.7668 13.8556 15.1137 13.6738C15.7287 13.3475 16.3474 13.3063 16.7693 13.565C17.2006 13.8294 20.7424 16.1844 21.0687 16.4113C21.3424 16.6044 21.5187 16.9344 21.5543 17.3188C21.5881 17.7069 21.4681 18.1175 21.2187 18.4756C21.1981 18.5056 18.9837 21.56 17.7349 21.56Z" fill="#25B757"/>
</svg>
