<svg width="16" height="24" viewBox="0 0 16 24" fill="none" xmlns="http://www.w3.org/2000/svg">
<path d="M8.00031 0.47998C3.76656 0.47998 0.320312 3.92623 0.320312 8.15998C0.320312 14.9344 7.34219 23.0137 7.64031 23.355C7.73219 23.46 7.86156 23.52 8.00031 23.52C8.14844 23.5106 8.26844 23.46 8.36031 23.355C8.65844 23.0081 15.6803 14.79 15.6803 8.15998C15.6803 3.92623 12.2341 0.47998 8.00031 0.47998ZM8.00031 5.75998C9.59031 5.75998 10.8803 7.04998 10.8803 8.63998C10.8803 10.23 9.59031 11.52 8.00031 11.52C6.41031 11.52 5.12031 10.23 5.12031 8.63998C5.12031 7.04998 6.41031 5.75998 8.00031 5.75998Z" fill="#25B757"/>
</svg>
