<svg width="14" height="22" viewBox="0 0 14 22" fill="none" xmlns="http://www.w3.org/2000/svg">
<path d="M7.88039 0.880005C7.18372 0.880005 6.60522 1.1571 6.23125 1.57782C5.85728 1.99854 5.68039 2.54223 5.68039 3.08C5.68039 3.61778 5.85728 4.16147 6.23125 4.58219C6.60522 5.00291 7.18372 5.28 7.88039 5.28C8.57706 5.28 9.15556 5.00291 9.52953 4.58219C9.90351 4.16147 10.0804 3.61778 10.0804 3.08C10.0804 2.54223 9.90351 1.99854 9.52953 1.57782C9.15556 1.1571 8.57706 0.880005 7.88039 0.880005ZM7.88039 1.76C8.35706 1.76 8.65856 1.92291 8.87125 2.16219C9.08394 2.40147 9.20039 2.73778 9.20039 3.08C9.20039 3.42223 9.08394 3.75854 8.87125 3.99782C8.65856 4.2371 8.35706 4.4 7.88039 4.4C7.40372 4.4 7.10222 4.2371 6.88953 3.99782C6.67684 3.75854 6.56039 3.42223 6.56039 3.08C6.56039 2.73778 6.67684 2.40147 6.88953 2.16219C7.10222 1.92291 7.40372 1.76 7.88039 1.76ZM6.20805 5.72001C6.18011 5.71964 6.15219 5.72195 6.12469 5.72688C6.12325 5.72716 6.12182 5.72745 6.12039 5.72774C5.6619 5.74689 5.2435 5.90623 4.89664 6.15399C4.89258 6.15679 4.88857 6.15965 4.88461 6.16258L2.24461 8.18641L2.26867 8.17008C2.0428 8.32066 1.91174 8.53332 1.81063 8.73555C1.80632 8.7443 1.80231 8.75318 1.79859 8.76219L0.570547 11.7004C0.450168 11.9053 0.400391 12.112 0.400391 12.32C0.400391 13.044 0.99639 13.64 1.72039 13.64C2.01617 13.64 2.29711 13.5295 2.50414 13.3556C2.71017 13.1825 2.85079 12.9603 2.95703 12.7222L2.95875 12.7196L4.05273 10.3202L4.52711 9.97735C4.25549 11.1021 3.97797 12.2109 3.97797 12.2109C3.96884 12.2465 3.96422 12.2832 3.96422 12.32C3.96422 12.3542 3.92039 12.5107 3.92039 12.76C3.92039 12.7709 3.92198 12.7817 3.92211 12.7927L3.28961 15.9139L1.24258 18.5161L1.27695 18.4766C0.973984 18.7795 0.840391 19.1882 0.840391 19.58C0.840391 20.4265 1.53391 21.12 2.38039 21.12C2.91759 21.12 3.38924 20.8407 3.65313 20.4205L3.65656 20.4162L5.85313 17.5605C5.88817 17.5147 5.91387 17.4624 5.92875 17.4066L6.32836 15.932L7.04594 16.5636L7.84945 19.8172C7.85214 19.8288 7.85529 19.8402 7.85891 19.8516C7.8746 19.8987 7.85653 20.0178 7.96719 20.2486C8.21991 20.8083 8.79256 21.12 9.37656 21.12C10.223 21.12 10.9166 20.4265 10.9166 19.58C10.9166 19.3307 10.855 19.1489 10.8152 18.9896L9.93516 15.4696C9.92132 15.4141 9.8968 15.3619 9.86297 15.3158L7.91992 12.6698C7.96569 12.4997 8.19258 11.6566 8.45703 10.67L9.13766 11.4263C9.19329 11.4883 9.26541 11.5333 9.34563 11.556L11.8533 12.2598C12.0557 12.3395 12.2024 12.32 12.2804 12.32C13.0044 12.32 13.6004 11.724 13.6004 11C13.6004 10.4084 13.2137 9.95369 12.7616 9.75993C12.7465 9.75333 12.731 9.74759 12.7152 9.74274L10.6613 9.12657L8.98899 6.74352C8.95905 6.69992 8.92149 6.66208 8.87813 6.6318C8.52319 6.08649 7.91114 5.72001 7.22039 5.72001H6.20805ZM6.20805 6.6H7.22039C7.80937 6.6 8.32039 7.11102 8.32039 7.70001C8.32039 7.80267 8.29908 7.86879 8.25508 8.00079C8.24899 8.01907 8.24411 8.03773 8.24047 8.05665C8.23915 8.06235 8.23607 8.07512 8.23188 8.09188C8.22346 8.1254 8.21074 8.17653 8.19406 8.24055C8.16071 8.3686 8.11251 8.55009 8.05484 8.76735C7.93952 9.20187 7.78513 9.77831 7.63117 10.3529C7.32326 11.5021 7.01586 12.6457 7.01586 12.6457C6.99864 12.7094 6.99595 12.7761 7.008 12.841C7.02005 12.9058 7.04652 12.9672 7.08547 13.0204L9.10242 15.767L9.9618 19.2027C10.01 19.3955 10.0366 19.4773 10.0366 19.58C10.0366 19.9655 9.76209 20.24 9.37656 20.24C9.08323 20.24 8.86749 20.1125 8.76641 19.8851C8.76368 19.879 8.76081 19.873 8.75781 19.867C8.79023 19.9319 8.76509 19.7989 8.70367 19.6066L7.8675 16.219C7.84601 16.1317 7.79833 16.0532 7.73086 15.9938L5.55148 14.0766C5.54946 14.0745 5.54921 14.0734 5.54719 14.0714C5.30844 13.833 5.06635 13.6098 5.00148 13.5016C4.99791 13.4955 4.99418 13.4895 4.99031 13.4836C4.87691 13.3135 4.80039 13.0387 4.80039 12.76C4.80039 12.6782 4.82428 12.5568 4.83563 12.4094C4.84141 12.3867 5.31465 10.5239 5.62625 9.16352C5.66921 9.11014 5.69911 9.04746 5.71358 8.98048C5.72804 8.91351 5.72666 8.84408 5.70955 8.77772C5.69244 8.71137 5.66007 8.64993 5.61503 8.5983C5.56998 8.54667 5.5135 8.50627 5.45008 8.48032C5.34955 8.42725 5.23238 8.41515 5.12312 8.44655C5.01387 8.47795 4.921 8.55041 4.86398 8.64876L3.44258 9.67571C3.38081 9.72025 3.33165 9.78007 3.29992 9.8493L2.15609 12.3578C2.15552 12.359 2.15494 12.3601 2.15438 12.3613C2.0848 12.5178 2.00578 12.6247 1.93781 12.6818C1.86984 12.7389 1.82061 12.76 1.72039 12.76C1.47639 12.76 1.28039 12.564 1.28039 12.32C1.28039 12.2858 1.31341 12.1622 1.33883 12.1241C1.35437 12.1005 1.36761 12.0754 1.37836 12.0493L2.60125 9.12399C2.67318 8.98184 2.71952 8.92712 2.7568 8.90227C2.76472 8.8968 2.77246 8.89106 2.78 8.88508L5.40797 6.86985L5.40969 6.86899C5.65589 6.69355 5.9105 6.6 6.20805 6.6ZM9.06461 8.38493L10.028 9.75649C10.0846 9.8376 10.167 9.89724 10.2617 9.92579L12.4179 10.5729C12.5798 10.6442 12.7204 10.8015 12.7204 11C12.7204 11.244 12.5244 11.44 12.2804 11.44C12.1924 11.44 12.1001 11.4079 12.1695 11.4426C12.1445 11.4301 12.1183 11.42 12.0913 11.4125L9.7057 10.7431L8.72773 9.65594C8.78659 9.43532 8.85648 9.17532 8.90477 8.99336C8.9626 8.77544 9.01082 8.59289 9.04484 8.46227C9.05329 8.42983 9.05787 8.41073 9.06461 8.38493ZM4.51594 14.2957C4.65979 14.4493 4.80954 14.579 4.9293 14.6988C4.93596 14.7056 4.94283 14.7122 4.94992 14.7185L5.59273 15.284L5.10289 17.093L2.95531 19.8834C2.94328 19.8995 2.93237 19.9164 2.92266 19.9341C2.82726 20.101 2.61343 20.24 2.38039 20.24C1.99487 20.24 1.72039 19.9655 1.72039 19.58C1.72039 19.3558 1.76211 19.2358 1.89914 19.0988C1.91164 19.0866 1.92341 19.0737 1.93438 19.0601L4.04586 16.3763C4.08857 16.3222 4.118 16.259 4.1318 16.1915L4.51594 14.2957Z" fill="white"/>
</svg>
