<svg width="24" height="24" viewBox="0 0 24 24" fill="none" xmlns="http://www.w3.org/2000/svg">
<path d="M12 0.960022C5.91212 0.960022 0.959961 5.91218 0.959961 12C0.959961 18.0879 5.91212 23.04 12 23.04C18.0878 23.04 23.04 18.0879 23.04 12C23.04 5.91218 18.0878 0.960022 12 0.960022ZM12 13.44C11.7782 13.44 11.5704 13.3858 11.3827 13.296L8.49932 16.1794C8.40572 16.273 8.28284 16.32 8.15996 16.32C8.03708 16.32 7.9142 16.273 7.8206 16.1794C7.63292 15.9917 7.63292 15.6883 7.8206 15.5007L10.704 12.6173C10.6142 12.4296 10.56 12.2218 10.56 12C10.56 11.3741 10.9617 10.8466 11.52 10.6483V3.84002C11.52 3.57458 11.7345 3.36002 12 3.36002C12.2654 3.36002 12.48 3.57458 12.48 3.84002V10.6483C13.0382 10.8466 13.44 11.3741 13.44 12C13.44 12.7954 12.7953 13.44 12 13.44Z" fill="#25B757"/>
</svg>
