<svg width="18" height="24" viewBox="0 0 18 24" fill="none" xmlns="http://www.w3.org/2000/svg">
<path d="M8.99937 0.480011C8.735 0.480011 8.51937 0.695636 8.51937 0.960011V7.68001H9.47937V0.960011C9.47937 0.695636 9.26562 0.480011 8.99937 0.480011ZM9.47937 7.68001V15.645L12.4944 12.615C12.6819 12.4275 12.9969 12.4275 13.1844 12.615C13.3719 12.8025 13.3719 13.1175 13.1844 13.305L8.99937 17.475L4.81437 13.305C4.62687 13.1175 4.62687 12.8025 4.81437 12.615C5.00187 12.4275 5.31687 12.4275 5.50437 12.615L8.51937 15.645V7.68001H0.359375V24H17.6394V7.68001H9.47937Z" fill="#25B757"/>
</svg>
