<svg width="22" height="16" viewBox="0 0 22 16" fill="none" xmlns="http://www.w3.org/2000/svg">
<path d="M10.9995 0.519989C9.43883 0.519989 8.41617 0.624833 7.7682 0.739989C7.15805 0.84827 6.89336 0.973739 6.8607 0.987489C6.85898 0.989208 6.8057 1.00124 6.8057 1.00124C6.1543 1.22124 5.16258 1.52374 4.70195 2.41749C4.59023 2.63405 4.42352 3.07405 4.17945 3.69624C3.99211 4.17405 3.77211 4.77733 3.54695 5.35999H2.2407C1.58758 5.35999 1.10289 5.57827 0.810703 5.90999C0.518516 6.24171 0.439453 6.6353 0.439453 6.94124C0.439453 7.28327 0.618203 7.6253 0.893203 7.79374C1.1682 7.96218 1.47586 7.99999 1.8007 7.99999H2.52945C2.4607 8.18389 2.22695 8.79749 2.22695 8.79749L2.19945 8.87999V14.16C2.19945 14.8836 2.79586 15.48 3.51945 15.48H5.27945C6.00305 15.48 6.59945 14.8836 6.59945 14.16V13.72H15.3995V14.16C15.3995 14.8836 15.9959 15.48 16.7195 15.48H18.4795C19.203 15.48 19.7995 14.8836 19.7995 14.16V8.87999L19.772 8.79749C19.772 8.79749 19.5416 8.18561 19.4695 7.99999H20.1982C20.523 7.99999 20.8307 7.96218 21.1057 7.79374C21.3807 7.6253 21.5595 7.28327 21.5595 6.94124C21.5595 6.6353 21.4804 6.24171 21.1882 5.90999C20.896 5.57827 20.4113 5.35999 19.7582 5.35999H18.452C18.4245 5.29468 18.397 5.23108 18.3832 5.19499C17.9071 3.96436 17.4482 2.79218 17.2832 2.41749C16.8621 1.46015 15.7793 1.16624 15.1932 1.00124C15.1743 0.996083 15.1416 0.978895 15.1245 0.973739V0.987489C15.0832 0.970302 14.8323 0.84827 14.2307 0.739989C13.5827 0.624833 12.5601 0.519989 10.9995 0.519989ZM10.9995 1.39999C12.5188 1.39999 13.4951 1.51515 14.0795 1.61999C14.6638 1.72483 14.8082 1.79874 14.8082 1.79874L14.8495 1.81249L14.877 1.82624C15.4132 1.97921 16.2777 2.33155 16.472 2.77499C16.5991 3.06374 17.0993 4.35108 17.5582 5.52499C17.6682 5.80514 17.8521 6.26233 17.792 6.54249C17.761 6.68343 17.7077 6.78483 17.5032 6.89999C17.2987 7.01514 16.9137 7.11999 16.2795 7.11999H5.71945C5.08523 7.11999 4.70023 7.01514 4.4957 6.89999C4.29117 6.78483 4.23789 6.68343 4.20695 6.54249C4.1468 6.26233 4.3307 5.80514 4.4407 5.52499L4.4132 5.51124C4.6143 4.98702 4.82055 4.4439 4.9907 4.01249C5.23305 3.39546 5.44961 2.90046 5.4857 2.82999C5.72977 2.35561 6.49117 2.03249 7.1357 1.81249H7.1632L7.1907 1.79874C7.1907 1.79874 7.33508 1.72483 7.91945 1.61999C8.50383 1.51515 9.48008 1.39999 10.9995 1.39999ZM2.2407 6.23999H3.18945C3.02273 6.67827 2.99352 6.76421 2.85945 7.11999H1.8007C1.55492 7.11999 1.40195 7.07702 1.3607 7.05124C1.31945 7.02546 1.31945 7.06499 1.31945 6.94124C1.31945 6.78139 1.36414 6.6078 1.4707 6.48749C1.57727 6.36718 1.76289 6.23999 2.2407 6.23999ZM18.782 6.23999H19.7582C20.236 6.23999 20.4216 6.36718 20.5282 6.48749C20.6348 6.6078 20.6795 6.78139 20.6795 6.94124C20.6795 7.06499 20.6795 7.02546 20.6382 7.05124C20.597 7.07702 20.444 7.11999 20.1982 7.11999H19.1257C18.9848 6.75905 18.9538 6.68514 18.782 6.23999ZM3.71195 7.38124C3.81336 7.4878 3.93023 7.59093 4.06945 7.66999C4.46648 7.89343 4.99242 7.99999 5.71945 7.99999H16.2795C17.0065 7.99999 17.5324 7.89343 17.9295 7.66999C18.0687 7.59093 18.1855 7.4878 18.287 7.38124C18.5448 8.05843 18.904 9.00718 18.9195 9.04499V12.4687C18.9195 12.675 18.7476 12.84 18.5207 12.84H3.4782C3.25133 12.84 3.07945 12.675 3.07945 12.4687V9.04499C3.0932 9.00718 3.46102 8.05155 3.71195 7.38124ZM4.83945 8.43999C4.11586 8.43999 3.51945 9.0364 3.51945 9.75999C3.51945 10.1501 3.68102 10.4973 3.90445 10.7362C4.12789 10.9751 4.39773 11.1367 4.6607 11.2862C5.03367 11.4976 5.28805 11.6592 5.58195 11.7812C5.87586 11.9033 6.19211 11.96 6.59945 11.96C7.56539 11.96 8.35945 11.1676 8.35945 10.2C8.35945 9.23233 7.56539 8.43999 6.59945 8.43999H4.83945ZM15.3995 8.43999C14.4335 8.43999 13.6395 9.23233 13.6395 10.2C13.6395 11.1676 14.4335 11.96 15.3995 11.96C15.8068 11.96 16.123 11.9033 16.417 11.7812C16.7109 11.6592 16.9652 11.4976 17.3382 11.2862C17.6012 11.1367 17.871 10.9751 18.0945 10.7362C18.3179 10.4973 18.4795 10.1501 18.4795 9.75999C18.4795 9.0364 17.883 8.43999 17.1595 8.43999H15.3995ZM4.83945 9.31999H6.59945C7.09102 9.31999 7.47945 9.70843 7.47945 10.2C7.47945 10.6916 7.09102 11.08 6.59945 11.08C6.26945 11.08 6.10617 11.0508 5.91195 10.97C5.71773 10.8892 5.47539 10.7362 5.08695 10.5162C4.83945 10.377 4.65727 10.2447 4.5507 10.1312C4.44414 10.0178 4.39945 9.94389 4.39945 9.75999C4.39945 9.51249 4.59195 9.31999 4.83945 9.31999ZM15.3995 9.31999H17.1595C17.407 9.31999 17.5995 9.51249 17.5995 9.75999C17.5995 9.94389 17.5548 10.0178 17.4482 10.1312C17.3416 10.2447 17.1595 10.377 16.912 10.5162C16.5235 10.7362 16.2812 10.8892 16.087 10.97C15.8927 11.0508 15.7295 11.08 15.3995 11.08C14.9079 11.08 14.5195 10.6916 14.5195 10.2C14.5195 9.70843 14.9079 9.31999 15.3995 9.31999ZM3.07945 13.6512C3.20664 13.6925 3.33898 13.72 3.4782 13.72H5.71945V14.16C5.71945 14.4075 5.52695 14.6 5.27945 14.6H3.51945C3.27195 14.6 3.07945 14.4075 3.07945 14.16V13.6512ZM18.9195 13.6512V14.16C18.9195 14.4075 18.727 14.6 18.4795 14.6H16.7195C16.472 14.6 16.2795 14.4075 16.2795 14.16V13.72H18.5207C18.6599 13.72 18.7923 13.6925 18.9195 13.6512Z" fill="white"/>
</svg>
