<svg width="22" height="16" viewBox="0 0 22 16" fill="none" xmlns="http://www.w3.org/2000/svg">
<path d="M10.9995 0.520004C9.43883 0.520004 8.41617 0.624848 7.7682 0.740004C7.15805 0.848286 6.89336 0.973754 6.8607 0.987504C6.85898 0.989223 6.8057 1.00125 6.8057 1.00125C6.1543 1.22125 5.16258 1.52375 4.70195 2.4175C4.59023 2.63407 4.42352 3.07407 4.17945 3.69625C3.99211 4.17407 3.77211 4.77735 3.54695 5.36H2.2407C1.58758 5.36 1.10289 5.57829 0.810703 5.91C0.518516 6.24172 0.439453 6.63532 0.439453 6.94125C0.439453 7.28329 0.618203 7.62532 0.893203 7.79375C1.1682 7.96219 1.47586 8 1.8007 8H2.52945C2.4607 8.18391 2.22695 8.7975 2.22695 8.7975L2.19945 8.88V14.16C2.19945 14.8836 2.79586 15.48 3.51945 15.48H5.27945C6.00305 15.48 6.59945 14.8836 6.59945 14.16V13.72H15.3995V14.16C15.3995 14.8836 15.9959 15.48 16.7195 15.48H18.4795C19.203 15.48 19.7995 14.8836 19.7995 14.16V8.88L19.772 8.7975C19.772 8.7975 19.5416 8.18563 19.4695 8H20.1982C20.523 8 20.8307 7.96219 21.1057 7.79375C21.3807 7.62532 21.5595 7.28329 21.5595 6.94125C21.5595 6.63532 21.4804 6.24172 21.1882 5.91C20.896 5.57829 20.4113 5.36 19.7582 5.36H18.452C18.4245 5.29469 18.397 5.2311 18.3832 5.195C17.9071 3.96438 17.4482 2.79219 17.2832 2.4175C16.8621 1.46016 15.7793 1.16625 15.1932 1.00125C15.1743 0.996098 15.1416 0.978911 15.1245 0.973754V0.987504C15.0832 0.970317 14.8323 0.848286 14.2307 0.740004C13.5827 0.624848 12.5601 0.520004 10.9995 0.520004ZM10.9995 1.4C12.5188 1.4 13.4951 1.51516 14.0795 1.62C14.6638 1.72485 14.8082 1.79875 14.8082 1.79875L14.8495 1.8125L14.877 1.82625C15.4132 1.97922 16.2777 2.33157 16.472 2.775C16.5991 3.06375 17.0993 4.3511 17.5582 5.525C17.6682 5.80516 17.8521 6.26235 17.792 6.5425C17.761 6.68344 17.7077 6.78485 17.5032 6.9C17.2987 7.01516 16.9137 7.12 16.2795 7.12H5.71945C5.08523 7.12 4.70023 7.01516 4.4957 6.9C4.29117 6.78485 4.23789 6.68344 4.20695 6.5425C4.1468 6.26235 4.3307 5.80516 4.4407 5.525L4.4132 5.51125C4.6143 4.98704 4.82055 4.44391 4.9907 4.0125C5.23305 3.39547 5.44961 2.90047 5.4857 2.83C5.72977 2.35563 6.49117 2.0325 7.1357 1.8125H7.1632L7.1907 1.79875C7.1907 1.79875 7.33508 1.72485 7.91945 1.62C8.50383 1.51516 9.48008 1.4 10.9995 1.4ZM2.2407 6.24H3.18945C3.02273 6.67829 2.99352 6.76422 2.85945 7.12H1.8007C1.55492 7.12 1.40195 7.07703 1.3607 7.05125C1.31945 7.02547 1.31945 7.065 1.31945 6.94125C1.31945 6.78141 1.36414 6.60782 1.4707 6.4875C1.57727 6.36719 1.76289 6.24 2.2407 6.24ZM18.782 6.24H19.7582C20.236 6.24 20.4216 6.36719 20.5282 6.4875C20.6348 6.60782 20.6795 6.78141 20.6795 6.94125C20.6795 7.065 20.6795 7.02547 20.6382 7.05125C20.597 7.07703 20.444 7.12 20.1982 7.12H19.1257C18.9848 6.75907 18.9538 6.68516 18.782 6.24ZM3.71195 7.38125C3.81336 7.48782 3.93023 7.59094 4.06945 7.67C4.46648 7.89344 4.99242 8 5.71945 8H16.2795C17.0065 8 17.5324 7.89344 17.9295 7.67C18.0687 7.59094 18.1855 7.48782 18.287 7.38125C18.5448 8.05844 18.904 9.00719 18.9195 9.045V12.4688C18.9195 12.675 18.7476 12.84 18.5207 12.84H3.4782C3.25133 12.84 3.07945 12.675 3.07945 12.4688V9.045C3.0932 9.00719 3.46102 8.05157 3.71195 7.38125ZM4.83945 8.44C4.11586 8.44 3.51945 9.03641 3.51945 9.76C3.51945 10.1502 3.68102 10.4973 3.90445 10.7363C4.12789 10.9752 4.39773 11.1367 4.6607 11.2863C5.03367 11.4977 5.28805 11.6592 5.58195 11.7813C5.87586 11.9033 6.19211 11.96 6.59945 11.96C7.56539 11.96 8.35945 11.1677 8.35945 10.2C8.35945 9.23235 7.56539 8.44 6.59945 8.44H4.83945ZM15.3995 8.44C14.4335 8.44 13.6395 9.23235 13.6395 10.2C13.6395 11.1677 14.4335 11.96 15.3995 11.96C15.8068 11.96 16.123 11.9033 16.417 11.7813C16.7109 11.6592 16.9652 11.4977 17.3382 11.2863C17.6012 11.1367 17.871 10.9752 18.0945 10.7363C18.3179 10.4973 18.4795 10.1502 18.4795 9.76C18.4795 9.03641 17.883 8.44 17.1595 8.44H15.3995ZM4.83945 9.32H6.59945C7.09102 9.32 7.47945 9.70844 7.47945 10.2C7.47945 10.6916 7.09102 11.08 6.59945 11.08C6.26945 11.08 6.10617 11.0508 5.91195 10.97C5.71773 10.8892 5.47539 10.7363 5.08695 10.5163C4.83945 10.377 4.65727 10.2447 4.5507 10.1313C4.44414 10.0178 4.39945 9.94391 4.39945 9.76C4.39945 9.5125 4.59195 9.32 4.83945 9.32ZM15.3995 9.32H17.1595C17.407 9.32 17.5995 9.5125 17.5995 9.76C17.5995 9.94391 17.5548 10.0178 17.4482 10.1313C17.3416 10.2447 17.1595 10.377 16.912 10.5163C16.5235 10.7363 16.2812 10.8892 16.087 10.97C15.8927 11.0508 15.7295 11.08 15.3995 11.08C14.9079 11.08 14.5195 10.6916 14.5195 10.2C14.5195 9.70844 14.9079 9.32 15.3995 9.32ZM3.07945 13.6513C3.20664 13.6925 3.33898 13.72 3.4782 13.72H5.71945V14.16C5.71945 14.4075 5.52695 14.6 5.27945 14.6H3.51945C3.27195 14.6 3.07945 14.4075 3.07945 14.16V13.6513ZM18.9195 13.6513V14.16C18.9195 14.4075 18.727 14.6 18.4795 14.6H16.7195C16.472 14.6 16.2795 14.4075 16.2795 14.16V13.72H18.5207C18.6599 13.72 18.7923 13.6925 18.9195 13.6513Z" fill="#3B4353"/>
</svg>
