<svg width="22" height="13" viewBox="0 0 22 13" fill="none" xmlns="http://www.w3.org/2000/svg">
<path d="M20.9762 11.1343C20.1526 9.65205 18.0309 7.87097 17.1551 7.09593C16.9154 6.88372 16.8897 6.5166 17.1079 6.28193C18.7794 4.48572 20.1164 2.42185 20.5765 1.17472C20.7796 0.623806 20.3593 0.0417226 19.7671 0.0417226H18.047C17.48 0.0417226 17.1482 0.245223 16.9901 0.569264C15.6009 3.41597 14.4092 4.64797 13.575 5.36801C13.108 5.77135 12.3797 5.43722 12.3797 4.82351C12.3797 3.64101 12.3797 2.11247 12.3797 1.02851C12.3797 0.502806 11.9498 0.0774726 11.4195 0.0774726L8.27714 0.0417226C7.8816 0.0417226 7.65564 0.489514 7.89306 0.803472L8.41189 1.54826C8.60714 1.80631 8.71256 2.12026 8.71256 2.44247L8.70981 5.79656C8.70981 6.38001 8.0026 6.6651 7.58277 6.25626C6.16239 4.87301 4.92993 2.04831 4.48627 0.697597C4.35793 0.306639 3.99173 0.0426392 3.57648 0.0417226L1.88202 0.0375977C1.24631 0.0375977 0.781558 0.640306 0.954349 1.24714C2.5026 6.6816 5.67931 11.8516 11.3406 12.4121C11.8984 12.4671 12.3797 12.018 12.3797 11.462V9.69926C12.3797 9.19372 12.7761 8.75922 13.2858 8.74639C13.3037 8.74593 13.3216 8.74593 13.3394 8.74593C14.8368 8.74593 16.5139 10.9253 17.1005 11.9446C17.2692 12.238 17.5845 12.4167 17.9255 12.4167H20.2048C20.8699 12.4167 21.2966 11.7113 20.9762 11.1343Z" fill="white"/>
</svg>
